PathFileType	4	(X/Y/Z)	T1_P1_NoVision_NoMovement_3_0-639.trc
DataRate	CameraRate	NumFrames	NumMarkers	Units	OrigDataRate	OrigDataStartFrame	OrigNumFrames
60	60	6	27	m	60	559	639
Frame#	Time	RHip			RKnee			RAnkle			RBigToe			RSmallToe			RHeel			LHip			LKnee			LAnkle			LBigToe			LSmallToe			LHeel			Neck			Head			Nose			RShoulder			RElbow			RWrist			RThumb			RIndex			RPinky			LShoulder			LElbow			LWrist			LThumb			LIndex			LPinky		
		X1	Y1	Z1	X2	Y2	Z2	X3	Y3	Z3	X4	Y4	Z4	X5	Y5	Z5	X6	Y6	Z6	X7	Y7	Z7	X8	Y8	Z8	X9	Y9	Z9	X10	Y10	Z10	X11	Y11	Z11	X12	Y12	Z12	X13	Y13	Z13	X14	Y14	Z14	X15	Y15	Z15	X16	Y16	Z16	X17	Y17	Z17	X18	Y18	Z18	X19	Y19	Z19	X20	Y20	Z20	X21	Y21	Z21	X22	Y22	Z22	X23	Y23	Z23	X24	Y24	Z24	X25	Y25	Z25	X26	Y26	Z26	X27	Y27	Z27
560	9.333333333333334	-67.07085151887094	3798.9210119800236	-547.3410812111521	285.47621772799573	3876.5722582293088	-542.9445715565303	646.304353343868	4169.413915702796	-587.3459589452845	697.4741060294539	3947.055374228725	-483.85556499852413	719.1571779522433	4024.9270362462876	-596.5922735889909	684.7210496451416	4202.561722396169	-568.6597542106163	-110.99308247479883	3899.8472338442784	-356.4281902863812	234.5097274786158	4008.5574137511867	-361.15222629064385	590.0501741705076	4200.873710051606	-386.633382490823	679.182165794234	4139.799242319093	-333.33319698360805	633.4470895331942	4138.595590562477	-291.5449792521621	621.0399554717005	4224.550935066727	-413.5946883447188	-653.9509296285048	3658.2593071747797	-464.554697833986	-891.4410388200961	3505.777119395862	-414.08492898977437	-733.1169676042529	3528.6047715140153	-387.69739894840257	-555.6169065171272	3616.599850773875	-602.2881885084846	-289.6134176258847	3760.8133309128516	-698.5645859613672	-30.493429847428338	3715.0965940775122	-598.0208646144021	76.04599989065538	3794.050972625776	-568.8972214530357	93.96763270354899	3797.4765622844398	-575.7134980358306	85.05146238929977	3787.2624210888403	-592.0241437255011	-604.1810687187956	3746.8562508572195	-335.09515489348155	-386.61945453220517	3981.9998800357007	-337.01367671033216	-114.09778018330134	3985.8068554349184	-302.5163969042555	22.195071853372266	3936.8616010551823	-323.5893648993392	34.907208845243076	3930.1517531232244	-285.1795333640027	10.78186092813347	3997.1985390021164	-250.8922780226701
561	9.35	-67.27753279184576	3801.142599575708	-546.3719857387013	283.70320062238284	3869.890030405981	-542.5228154810277	645.5249074394718	4171.2012008164365	-589.8747986771574	696.299015458245	3943.578101674815	-482.73111761979874	717.7743501041572	4021.2023074039216	-595.5199177755907	684.2749971927116	4204.575435608235	-571.4197592103153	-112.56883495358372	3899.5004124889692	-356.54966194712904	234.34192279456434	4008.60751147532	-361.13743182799715	590.736627306567	4201.395467712612	-386.891379583723	680.2443241825289	4139.298139020042	-332.3352939865603	634.8727038003221	4139.370554663585	-291.81988596045784	621.9465763887873	4223.789187011472	-415.6848312432963	-653.7691483545636	3658.1597054076033	-464.4533602048248	-892.8976590767413	3505.092355927237	-413.9150256137761	-733.7778884886333	3528.4212363436936	-387.6735740819674	-555.592357578612	3616.576893882589	-602.2004079237217	-289.018653691639	3761.005853120444	-698.5201316748631	-30.45834496521033	3715.415993818404	-597.8185396959399	76.06448093478878	3794.279943408287	-569.1309875363262	93.94902418674462	3797.5219817817674	-575.786746330574	85.49410415815525	3787.3191687716107	-592.0256200899562	-604.1507540029022	3746.837333410135	-335.05549279778484	-386.2097152580373	3982.1257912758347	-336.7279969961917	-112.55558635714706	3986.848524982778	-302.9209877139582	22.79139770571305	3937.21673431241	-323.75856446176476	35.25284891090955	3930.804672551564	-287.57828843823836	10.662135494934045	3997.3104872512313	-251.8373827257499
562	9.366666666666667	-67.4134729843334	3804.9879030802194	-546.5655072171458	283.23368776871627	3871.4653496898795	-545.6827009138531	646.429439610503	4178.136668150971	-595.5903558653413	697.157989179294	3945.735281483687	-484.3049837822801	717.8909723612687	4023.517760723776	-596.0721000966732	684.3781989411423	4205.865234727694	-572.2708880306614	-113.18670757409032	3899.2963806355538	-356.5958615816359	234.41827095068516	4008.740836822579	-361.1289054939202	590.7620949138702	4201.3726501616275	-386.8897654789281	680.1492373081053	4138.470326812327	-331.7934680899982	635.4474834999572	4141.912332133647	-293.7873693680432	621.6514553518956	4220.849136948531	-415.231815582099	-653.0351162570431	3658.469979465071	-464.5264636394205	-894.1881224227777	3504.5344213922112	-413.7852459112903	-733.7098718296659	3528.4584236265455	-387.66409755299804	-555.5533301229999	3616.534179162459	-602.3305066125121	-287.5952137966059	3761.4687800750426	-698.3880398523148	-30.526504549672765	3717.4724895877675	-598.3980837082537	75.4955949874371	3793.9873117277607	-569.0796288217527	93.93911708172791	3797.5332778841685	-575.8333486183833	86.16118872192878	3787.349706944127	-591.9878025420256	-604.1225102865046	3746.7672165780573	-334.99579309168155	-385.3814522986058	3982.8798186972153	-337.4716920932615	-111.87706479871889	3987.3152565800783	-303.08099209932885	23.65580457230582	3937.7469097537924	-323.9816255425908	35.49275766170244	3931.389097876715	-288.8366470158864	11.848899610577654	3998.5165818588675	-253.45130496738506
563	9.383333333333333	-67.3864103323991	3810.315822816109	-548.7321686005873	284.4971758414524	3876.822153950733	-549.6016237303878	648.5447050082747	4185.110103995863	-600.3314102045078	699.800152604919	3950.7654341195243	-487.37215094599753	719.4655303833214	4029.1807187096033	-597.734544700123	685.3845729078319	4206.680971475576	-572.2499977647352	-112.68256479805278	3899.2794839753383	-356.5592834721724	234.50148040633218	4008.733573915447	-361.1024071650118	590.6096604133714	4201.207315906143	-386.81067843939155	679.5282975310417	4139.106159528021	-332.7007211458596	635.0033926284808	4145.347457797242	-296.6312151055451	621.2793000380136	4220.415298313208	-413.82754980452046	-652.1953780510217	3658.9258141149685	-464.6812313409763	-894.5292335861027	3504.4260312198912	-413.7690085522331	-732.9739226011602	3528.664270025477	-387.6540927252762	-555.4806272985907	3616.484786428926	-603.0411862413871	-285.7544038522506	3762.0534369432853	-698.2181327738101	-30.537806235642318	3720.500672459032	-599.7143552968307	74.32882541978758	3792.7163402300375	-568.3486851161348	93.94381936021152	3797.536302781936	-575.8556191784239	86.5062369278227	3787.310915352486	-591.9620949324247	-604.0878453120549	3746.647249318223	-334.91856596238847	-384.437320530368	3983.625584938881	-338.05535060620116	-111.8028129080615	3987.4159563198054	-303.0812610578766	24.07265570972055	3938.0271832448	-324.08441023442464	35.478387863132	3931.6762293668226	-288.1037454645205	13.519618550136055	3999.578194013013	-253.65942914586583
564	9.4	-67.25061980090692	3812.6647511115275	-550.8525059770882	286.2031480546881	3878.652479724291	-550.1253403153352	651.1206317060054	4189.272400382251	-602.2729910074017	701.6123175868765	3952.3471852617627	-488.0645734543278	721.1134039354923	4033.359863052093	-599.092282128473	686.883491350655	4208.165597977972	-573.3836304776341	-112.0426955533797	3899.3571345297046	-356.53675249672125	234.5024413874511	4008.5925310613484	-361.05180124775126	590.5480692220565	4201.187378647633	-386.7781596783967	679.0570992381935	4139.595625645232	-333.3199835795051	634.7974990278269	4147.317059643255	-298.06115077329093	622.4986545860583	4229.325360536411	-415.67088196023843	-651.3005907871263	3659.3119498185592	-464.7940271257046	-893.8353003016365	3504.6880691452143	-413.81199150408696	-731.6622306775332	3528.9291317380103	-387.5895623227588	-555.367144980533	3616.462602394006	-604.4795194325674	-284.38048090248986	3762.43475740761	-698.0880164495254	-30.546783297975303	3722.017029648084	-600.2909844608563	73.17113750126764	3790.1998067540935	-566.5972625003959	93.95499657488722	3797.522769429144	-575.8472467535221	86.1510995608358	3787.1791181434064	-591.9846644516178	-604.043013451218	3746.5301656313345	-334.8431259623831	-383.5830518446928	3983.7481768641874	-337.1945254981139	-111.91205715312057	3987.421445202416	-303.0358169467879	23.589350320128347	3937.810279748568	-323.9706990123617	35.21970555415649	3931.239972179881	-285.85172186018326	14.257264543542753	3999.5733263812767	-252.0938275795055
565	9.416666666666666	-67.12845805190834	3810.4957461696986	-551.2792633583659	286.91778422643483	3875.0230836930045	-546.7257098449095	653.0067673277343	4190.819264926113	-602.3987631922906	701.1070263405607	3948.463448904781	-485.1839014660971	721.8311031754275	4034.6071972112322	-599.5492990292443	688.2342606216065	4211.046801943857	-576.2447621981996	-111.88312416009178	3899.5814952061864	-356.643668323302	234.42816367328328	4008.4795625459756	-361.01791244463345	590.6274148534021	4201.373353811828	-386.8197559654791	678.4962036602549	4138.3172040475365	-332.34910429868603	635.3495523886487	4145.996972439558	-296.5026066271257	625.2827501013633	4246.135585236746	-421.27228187024144	-650.5154661789145	3659.559802556161	-464.83957069205786	-892.7035856882916	3505.0884856369603	-413.86161618697145	-730.5195380158184	3529.0828134271082	-387.48470743778097	-555.2633699997002	3616.47533302789	-605.830951012148	-283.88333819536683	3762.4699520628124	-698.0248074889926	-30.62321777645083	3720.4495328202033	-599.011650919924	72.8687349472689	3787.427842750585	-564.4412457034284	93.96929692430837	3797.499683755757	-575.812955844823	85.49970074618203	3787.016579332309	-592.0276086574224	-603.9982179413695	3746.4571845091036	-334.7830183406044	-382.72614013405683	3983.4660364663805	-335.28520235684687	-111.99333691065029	3987.4065645419264	-302.9945851152079	22.817497877699108	3937.4633138339077	-323.79682442902663	34.784373763863066	3928.8558908951227	-282.62390362427294	13.67589936513452	3998.8544721980106	-250.3090470439273
